<mxfile host="app.diagrams.net" modified="2023-10-31T04:12:07.558Z" agent="Mozilla/5.0 (Macintosh; Intel Mac OS X 10_15_7) AppleWebKit/605.1.15 (KHTML, like Gecko) Version/17.1 Safari/605.1.15" version="22.0.8" etag="sZukZjM1Ni6I25eq2qUS" type="github">
  <diagram name="Page-1" id="cDMRUsQktvKMmfCy9hgX">
    <mxGraphModel>
      <root>
        <mxCell id="0" />
        <mxCell id="1" parent="0" />
      </root>
    </mxGraphModel>
  </diagram>
</mxfile>
